<svg xmlns="http://www.w3.org/2000/svg" xmlns:xlink="http://www.w3.org/1999/xlink" width="312" height="64" viewBox="0 0 312 64">
  <defs>
    <path id="logo-b" d="M28.9704539,36 L1.81647028,36 L1.81647028,30.9824161 L19.27963,7.12429643 L8.94931017,7.12429643 L7.71951019,11.5515764 L3.04627026,11.5515764 L3.04627026,1.31964052 L29.1180299,1.31964052 L29.1180299,6.87833644 L11.9992141,30.2445361 L23.21499,30.2445361 L24.2972139,25.1777602 L28.9704539,25.1777602 L28.9704539,36 Z M49.5327096,0.729336529 C54.4519341,0.729336529 58.2642759,2.26247184 60.9698494,5.32878846 C63.6754229,8.39510508 65.0281893,12.6829648 65.0281893,18.1924963 C65.0281893,23.7348226 63.5114512,28.1948526 60.4779294,31.5727201 C57.4444076,34.9505876 53.4680941,36.639496 48.5488696,36.639496 C43.6296451,36.639496 39.8582962,35.1309564 37.2347097,32.1138321 C34.6111233,29.0967077 33.2993498,24.7022664 33.2993498,18.9303763 C33.2993498,13.2896655 34.7504993,8.84603264 37.6528417,5.59934446 C40.5551842,2.35265627 44.5151005,0.729336529 49.5327096,0.729336529 Z M49.2867496,6.87833644 C46.7287528,6.87833644 44.7938869,7.78837932 43.4820937,9.6084924 C42.1703004,11.4286055 41.5144137,14.4538832 41.5144137,18.6844163 C41.5144137,22.7181804 42.1129104,25.6942666 43.3099217,27.6127641 C44.506933,29.5312617 46.3352173,30.4904961 48.7948296,30.4904961 C51.3856212,30.4904961 53.36148,29.5476589 54.7224655,27.6619561 C56.0834509,25.7762534 56.7639335,22.7017842 56.7639335,18.4384563 C56.7639335,14.437487 56.140841,11.5105923 54.8946375,9.6576844 C53.6484339,7.80477649 51.7791567,6.87833644 49.2867496,6.87833644 Z M86.672669,0.729336529 C91.5918935,0.729336529 95.4042353,2.26247184 98.1098088,5.32878846 C100.815382,8.39510508 102.168149,12.6829648 102.168149,18.1924963 C102.168149,23.7348226 100.651411,28.1948526 97.6178888,31.5727201 C94.584367,34.9505876 90.6080535,36.639496 85.688829,36.639496 C80.7696045,36.639496 76.9982556,35.1309564 74.3746692,32.1138321 C71.7510828,29.0967077 70.4393092,24.7022664 70.4393092,18.9303763 C70.4393092,13.2896655 71.8904587,8.84603264 74.7928012,5.59934446 C77.6951436,2.35265627 81.65506,0.729336529 86.672669,0.729336529 Z M86.426709,6.87833644 C83.8687123,6.87833644 81.9338463,7.78837932 80.6220531,9.6084924 C79.3102599,11.4286055 78.6543731,14.4538832 78.6543731,18.6844163 C78.6543731,22.7181804 79.2528698,25.6942666 80.4498811,27.6127641 C81.6468924,29.5312617 83.4751768,30.4904961 85.934789,30.4904961 C88.5255806,30.4904961 90.5014395,29.5476589 91.8624249,27.6619561 C93.2234104,25.7762534 93.9038929,22.7017842 93.9038929,18.4384563 C93.9038929,14.437487 93.2808005,11.5105923 92.0345969,9.6576844 C90.7883934,7.80477649 88.9191161,6.87833644 86.426709,6.87833644 Z M118.499893,36 L108.563109,7.02591243 L105.218053,5.64853646 L105.218053,1.56560052 L120.467572,1.31964052 L120.467572,5.64853646 L116.827365,7.07510443 L121.353028,21.2915922 L122.927172,27.3422081 L124.501316,21.5375522 L129.371324,7.12429643 L125.632732,5.64853646 L125.632732,1.56560052 L140.34114,1.31964052 L140.34114,5.64853646 L136.750124,7.12429643 L126.370612,36 L118.499893,36 Z M157.459956,31.7202961 L157.459956,36 L142.456396,36 L142.456396,31.7202961 L146.145796,30.4904961 L146.145796,7.12429643 L142.456396,5.64853646 L142.456396,1.56560052 L157.459956,1.31964052 L157.459956,5.64853646 L153.770556,7.12429643 L153.770556,30.4904961 L157.459956,31.7202961 Z M173.201396,7.12429643 L173.201396,15.3393603 L183.13818,15.3393603 L183.13818,20.7504802 L173.201396,20.7504802 L173.201396,30.2445361 L181.90838,30.2445361 L183.039796,26.1616001 L187.565459,26.1616001 L187.565459,36 L161.887236,36 L161.887236,31.7202961 L165.576636,30.4904961 L165.576636,7.12429643 L161.887236,5.64853646 L161.887236,1.56560052 L173.201396,1.31964052 L186.975155,1.31964052 L186.975155,10.8136964 L182.4003,10.8136964 L181.1705,7.12429643 L173.201396,7.12429643 Z M201.683563,36 L193.714459,7.07510443 L190.271019,5.64853646 L190.271019,1.56560052 L204.881043,1.31964052 L204.881043,5.64853646 L201.290027,7.12429643 L205.520539,24.9318002 L212.407419,1.71317651 L219.048339,1.31964052 L225.640067,24.8826082 L230.362499,7.12429643 L226.673099,5.64853646 L226.673099,1.56560052 L240.692819,1.31964052 L240.692819,5.64853646 L237.150995,7.12429643 L228.739163,36 L221.753899,36 L215.309747,12.6338004 C214.522671,15.8476937 213.235493,20.381511 211.448175,26.2353881 C209.660857,32.0892653 208.668828,35.3441034 208.472059,36 L201.683563,36 Z M244.136259,32.1630241 C244.136259,30.818436 244.554386,29.7444214 245.390655,28.9409481 C246.226923,28.1374748 247.218952,27.7357441 248.366771,27.7357441 C249.711359,27.7357441 250.736182,28.1210776 251.441271,28.8917561 C252.146359,29.6624346 252.498899,30.7528464 252.498899,32.1630241 C252.498899,33.5404069 252.088969,34.6308187 251.269099,35.434292 C250.449228,36.2377653 249.449,36.639496 248.268387,36.639496 C246.923799,36.639496 245.898975,36.2541625 245.193887,35.483484 C244.488798,34.7128055 244.136259,33.6059966 244.136259,32.1630241 Z M268.240338,36.49192 C265.518367,36.49192 263.64909,35.6146714 262.63245,33.860148 C261.615811,32.1056246 261.107498,29.0475526 261.107498,24.6858402 L261.107498,15.4869363 L256.532642,15.4869363 L256.532642,10.8136964 L261.107498,10.1742004 L261.107498,3.38570449 L268.338722,2.05752051 L268.338722,10.1742004 L275.225602,10.1742004 L275.225602,15.4869363 L268.338722,15.4869363 L268.338722,26.6043281 C268.338722,28.2440696 268.519091,29.3918715 268.879834,30.0477681 C269.240577,30.7036647 269.929259,31.0316081 270.945898,31.0316081 C272.126512,31.0316081 273.421888,30.6544732 274.832066,29.9001921 L276.602978,33.442016 C273.717033,35.4752955 270.929514,36.49192 268.240338,36.49192 Z M292.049266,28.6212001 L296.378162,14.2571363 L293.525026,13.6176403 L293.525026,9.68228039 L306.41333,9.4363204 L306.41333,13.6176403 L303.609386,14.2571363 L295.689474,36 L287.572794,36 L279.800458,14.4047123 L277.439242,13.6176403 L277.439242,9.68228039 L290.327546,9.4363204 L290.327546,13.6176403 L287.572794,14.1095603 L292.049266,28.6212001 Z"/>
    <filter id="logo-a" width="104.6%" height="139%" x="-2.6%" y="-13.9%" filterUnits="objectBoundingBox">
      <feOffset dx="-1" dy="2" in="SourceAlpha" result="shadowOffsetOuter1"/>
      <feGaussianBlur in="shadowOffsetOuter1" result="shadowBlurOuter1" stdDeviation="2"/>
      <feColorMatrix in="shadowBlurOuter1" values="0 0 0 0 0   0 0 0 0 0   0 0 0 0 0  0 0 0 0.5 0"/>
    </filter>
  </defs>
  <g fill="none" transform="translate(3 1)">
    <use fill="#000" filter="url(#logo-a)" xlink:href="#logo-b"/>
    <use fill="#FFF" xlink:href="#logo-b"/>
    <g transform="translate(.278 47.943)">
      <path fill="#CC8439" d="M7.79240017,11.0572002 L7.79240017,4.6662001 L5.69800012,8.82420019 L4.25040009,8.82420019 L2.14060005,4.6662001 L2.14060005,11.0572002 L1.42108547e-14,11.0572002 L1.42108547e-14,0.092400002 L2.10980005,0.092400002 L4.97420011,6.02140013 L7.82320017,0.092400002 L9.93300022,0.092400002 L9.93300022,11.0572002 L7.79240017,11.0572002 Z M12.3046003,1.66320004 L12.3046003,0.0308000007 L14.3528003,0.0308000007 L14.3528003,1.66320004 L12.3046003,1.66320004 Z M12.3354003,11.0572002 L12.3354003,3.03380007 L14.3374003,3.03380007 L14.3374003,11.0572002 L12.3354003,11.0572002 Z M18.8342004,11.0572002 C18.0641965,11.0572002 17.481569,10.8339025 17.0863004,10.3873002 C16.6910317,9.94069798 16.4934004,9.39913672 16.4934004,8.76260019 L16.4934004,0.092400002 L18.4954004,0.092400002 L18.4954004,8.63940019 C18.4954004,9.12193594 18.7315314,9.3632002 19.2038004,9.3632002 L19.9738004,9.3632002 L19.9738004,11.0572002 L18.8342004,11.0572002 Z M29.6296006,11.0572002 L27.9818006,11.0572002 L26.3032006,6.02140013 L24.6246005,11.0572002 L22.9768005,11.0572002 L20.5128004,3.03380007 L22.6380005,3.03380007 L23.9316005,7.99260017 L25.5640006,3.03380007 L27.0270006,3.03380007 L28.6748006,7.99260017 L29.9684006,3.03380007 L32.0782007,3.03380007 L29.6296006,11.0572002 Z M37.3758008,11.0572002 L37.3758008,10.3642002 C37.0985994,10.6414016 36.8162689,10.839033 36.5288008,10.9571002 C36.2413327,11.0751675 35.8666031,11.1342002 35.4046008,11.1342002 C34.5113963,11.1342002 33.8363697,10.9006359 33.3795007,10.4335002 C32.9226318,9.96636455 32.6942007,9.3632039 32.6942007,8.62400019 C32.6942007,7.93613007 32.9251984,7.37660232 33.3872007,6.94540015 C33.849203,6.51419799 34.5319296,6.29860014 35.4354008,6.29860014 L37.3296008,6.29860014 L37.3296008,5.89820013 C37.3296008,5.45673124 37.214102,5.13590111 36.9831008,4.93570011 C36.7520996,4.7354991 36.3696701,4.6354001 35.8358008,4.6354001 C35.4456655,4.6354001 35.1479351,4.68159964 34.9426008,4.7740001 C34.7372664,4.86640057 34.5216685,5.04093216 34.2958007,5.29760011 L33.0176007,4.05020009 C33.407736,3.62926464 33.8132653,3.3392342 34.2342007,3.18010007 C34.6551362,3.02096594 35.2146639,2.94140006 35.9128008,2.94140006 C38.1920122,2.94140006 39.3316009,3.88592397 39.3316009,5.77500013 L39.3316009,11.0572002 L37.3758008,11.0572002 Z M37.3296008,7.66920017 L35.7434008,7.66920017 C34.9939303,7.66920017 34.6192008,7.97206381 34.6192008,8.57780019 C34.6192008,9.19380328 35.0041969,9.50180021 35.7742008,9.50180021 C36.092469,9.50180021 36.3388666,9.47870044 36.5134008,9.4325002 C36.687935,9.38629997 36.8675999,9.27593441 37.0524008,9.1014002 C37.2372017,8.92686599 37.3296008,8.59320265 37.3296008,8.10040018 L37.3296008,7.66920017 Z M46.107601,11.0572002 L46.107601,10.3180002 C45.5839984,10.872403 44.9166717,11.1496002 44.105601,11.1496002 C43.7154657,11.1496002 43.3587026,11.0880009 43.0353009,10.9648002 C42.7118993,10.8415996 42.4193022,10.6491015 42.1575009,10.3873002 C41.8956996,10.1254989 41.7032015,9.80723542 41.5800009,9.4325002 C41.4568003,9.05776499 41.3952009,8.63426922 41.3952009,8.16200018 L41.3952009,3.03380007 L43.3972009,3.03380007 L43.3972009,7.88480017 C43.3972009,8.38786936 43.525533,8.75746568 43.7822009,8.99360019 C44.0388689,9.22973471 44.3519991,9.3478002 44.721601,9.3478002 C45.1014695,9.3478002 45.419733,9.23230136 45.676401,9.0013002 C45.9330689,8.77029904 46.061401,8.39813608 46.061401,7.88480017 L46.061401,3.03380007 L48.063401,3.03380007 L48.063401,11.0572002 L46.107601,11.0572002 Z M55.1320012,11.0572002 L53.1608012,7.71540017 L52.3138011,8.67020019 L52.3138011,11.0572002 L50.3118011,11.0572002 L50.3118011,0.092400002 L52.3138011,0.092400002 L52.3138011,6.31400014 L54.9780012,3.03380007 L57.3958012,3.03380007 L54.5314012,6.26780014 L57.6114012,11.0572002 L55.1320012,11.0572002 Z M60.4912013,7.66920017 C60.4912013,8.20306951 60.6451998,8.63426521 60.9532013,8.96280019 C61.2612029,9.29133518 61.6923986,9.4556002 62.2468013,9.4556002 C62.6574701,9.4556002 62.9937001,9.3991341 63.2555014,9.2862002 C63.5173027,9.1732663 63.7868,8.97820158 64.0640014,8.70100019 L65.2806014,9.88680021 C64.8391325,10.3282691 64.3951036,10.6490992 63.9485014,10.8493002 C63.5018991,11.0495012 62.9295382,11.1496002 62.2314013,11.1496002 C61.1328625,11.1496002 60.2396714,10.8416033 59.5518013,10.2256002 C58.8639312,9.60959713 58.5200013,8.54700773 58.5200013,7.03780015 C58.5200013,5.75446037 58.8382648,4.75090372 59.4748013,4.02710009 C60.1113378,3.30329645 60.9583294,2.94140006 62.0158013,2.94140006 C63.1040735,2.94140006 63.9587649,3.29816317 64.5799014,4.01170009 C65.2010379,4.725237 65.5116014,5.64666114 65.5116014,6.77600015 L65.5116014,7.66920017 L60.4912013,7.66920017 Z M63.3556014,5.43620012 C63.2426675,5.17953216 63.0732692,4.97676752 62.8474014,4.8279001 C62.6215336,4.67903269 62.3443363,4.6046001 62.0158013,4.6046001 C61.6872664,4.6046001 61.4100691,4.67903269 61.1842013,4.8279001 C60.9583335,4.97676752 60.7863686,5.18979873 60.6683013,5.46700012 C60.5502341,5.74420151 60.4912013,6.02139874 60.4912013,6.29860014 L63.5404014,6.29860014 C63.5404014,6.02139874 63.478802,5.73393495 63.3556014,5.43620012 Z M68.9304015,7.66920017 C68.9304015,8.20306951 69.0844,8.63426521 69.3924015,8.96280019 C69.7004031,9.29133518 70.1315987,9.4556002 70.6860015,9.4556002 C71.0966703,9.4556002 71.4329002,9.3991341 71.6947016,9.2862002 C71.9565029,9.1732663 72.2260002,8.97820158 72.5032016,8.70100019 L73.7198016,9.88680021 C73.2783327,10.3282691 72.8343038,10.6490992 72.3877016,10.8493002 C71.9410993,11.0495012 71.3687384,11.1496002 70.6706015,11.1496002 C69.5720627,11.1496002 68.6788716,10.8416033 67.9910015,10.2256002 C67.3031314,9.60959713 66.9592015,8.54700773 66.9592015,7.03780015 C66.9592015,5.75446037 67.2774649,4.75090372 67.9140015,4.02710009 C68.550538,3.30329645 69.3975296,2.94140006 70.4550015,2.94140006 C71.5432737,2.94140006 72.3979651,3.29816317 73.0191016,4.01170009 C73.640238,4.725237 73.9508016,5.64666114 73.9508016,6.77600015 L73.9508016,7.66920017 L68.9304015,7.66920017 Z M71.7948016,5.43620012 C71.6818677,5.17953216 71.5124693,4.97676752 71.2866015,4.8279001 C71.0607337,4.67903269 70.7835365,4.6046001 70.4550015,4.6046001 C70.1264665,4.6046001 69.8492693,4.67903269 69.6234015,4.8279001 C69.3975337,4.97676752 69.2255688,5.18979873 69.1075015,5.46700012 C68.9894342,5.74420151 68.9304015,6.02139874 68.9304015,6.29860014 L71.9796016,6.29860014 C71.9796016,6.02139874 71.9180022,5.73393495 71.7948016,5.43620012 Z M83.1908018,11.1496002 C82.6055989,11.1496002 82.0640376,11.0469346 81.5661018,10.8416002 C81.0681659,10.6362659 80.595904,10.3103025 80.1493017,9.86370021 C79.7026995,9.41709797 79.4255023,8.8935032 79.3177017,8.29290018 C79.2099012,7.69229716 79.1560017,6.78627287 79.1560017,5.57480012 C79.1560017,4.37359409 79.2124678,3.4675698 79.3254017,2.85670006 C79.4383356,2.24583033 79.7180995,1.71710227 80.1647017,1.27050003 C80.611304,0.823897785 81.075866,0.500501012 81.5584018,0.300300007 C82.0409375,0.100099001 82.5850654,2.48689958e-14 83.1908018,2.48689958e-14 C84.2482738,2.48689958e-14 85.1388982,0.297730362 85.8627019,0.893200019 C86.5865055,1.48866968 87.040801,2.34592779 87.2256019,3.46500008 L85.0542018,3.46500008 C84.9412679,2.99273104 84.73337,2.6154348 84.4305018,2.33310005 C84.1276336,2.0507653 83.7195377,1.90960004 83.2062018,1.90960004 C82.6209989,1.90960004 82.1949364,2.06103186 81.9280018,2.36390005 C81.6610671,2.66676824 81.4891022,3.02866463 81.4121018,3.44960007 C81.3351014,3.87053552 81.2966018,4.57892845 81.2966018,5.57480012 C81.2966018,6.61173866 81.3325347,7.32526487 81.4044018,7.71540017 C81.4762688,8.10553546 81.6482337,8.45716528 81.9203018,8.77030019 C82.1923698,9.0834351 82.6209989,9.2400002 83.2062018,9.2400002 C83.7195377,9.2400002 84.1276336,9.09883494 84.4305018,8.81650019 C84.73337,8.53416544 84.9412679,8.1568692 85.0542018,7.68460017 L87.2256019,7.68460017 C87.040801,8.79340573 86.5839389,9.64809721 85.8550019,10.2487002 C85.1260649,10.8493032 84.2380071,11.1496002 83.1908018,11.1496002 Z M94.463602,10.1640002 C94.1864007,10.461735 93.8424708,10.7004327 93.431802,10.8801002 C93.0211333,11.0597678 92.5334715,11.1496002 91.968802,11.1496002 C91.4143992,11.1496002 90.9318707,11.0597678 90.521202,10.8801002 C90.1105332,10.7004327 89.7486368,10.4463352 89.4355019,10.1178002 C89.122367,9.78926524 88.9016359,9.38630259 88.7733019,8.90890019 C88.6449679,8.4314978 88.5808019,7.80780402 88.5808019,7.03780015 C88.5808019,6.24726285 88.6424013,5.62613571 88.7656019,5.17440011 C88.8888025,4.72266451 89.1095337,4.32740179 89.4278019,3.98860009 C89.7460702,3.64979839 90.1079666,3.39056764 90.513502,3.21090007 C90.9190373,3.0312325 91.4041325,2.94140006 91.968802,2.94140006 C92.5232048,2.94140006 93.0082999,3.0312325 93.424102,3.21090007 C93.8399041,3.39056764 94.2043671,3.6446651 94.517502,3.97320009 C94.830637,4.30173507 95.0513681,4.70469771 95.1797021,5.18210011 C95.308036,5.65950251 95.3722021,6.278063 95.3722021,7.03780015 C95.3722021,7.83860417 95.3106027,8.46486459 95.1874021,8.91660019 C95.0642014,9.3683358 94.8229372,9.78413165 94.463602,10.1640002 Z M92.908202,5.09740011 C92.6720675,4.86126559 92.3589373,4.7432001 91.968802,4.7432001 C91.5889334,4.7432001 91.2937697,4.84843239 91.083302,5.05890011 C90.8728343,5.26936783 90.7368023,5.53116522 90.675202,5.84430013 C90.6136017,6.15743503 90.582802,6.5552644 90.582802,7.03780015 C90.582802,7.6846034 90.6187349,8.13119894 90.690602,8.37760018 C90.762469,8.62400142 90.898501,8.84729919 91.098702,9.0475002 C91.298903,9.2477012 91.5889334,9.3478002 91.968802,9.3478002 C92.3589373,9.3478002 92.6592343,9.24256792 92.869702,9.0321002 C93.0801697,8.82163247 93.2162017,8.55983508 93.277802,8.24670018 C93.3394023,7.93356527 93.370202,7.53060263 93.370202,7.03780015 C93.370202,6.51419752 93.3445356,6.11123488 93.293202,5.82890013 C93.2418684,5.54656538 93.1135364,5.30273447 92.908202,5.09740011 Z M101.901802,11.0572002 L101.901802,10.3180002 C101.3782,10.872403 100.710873,11.1496002 99.8998022,11.1496002 C99.5096669,11.1496002 99.1529038,11.0880009 98.8295021,10.9648002 C98.5061005,10.8415996 98.2135034,10.6491015 97.9517021,10.3873002 C97.6899008,10.1254989 97.4974027,9.80723542 97.3742021,9.4325002 C97.2510015,9.05776499 97.1894021,8.63426922 97.1894021,8.16200018 L97.1894021,3.03380007 L99.1914021,3.03380007 L99.1914021,7.88480017 C99.1914021,8.38786936 99.3197342,8.75746568 99.5764022,8.99360019 C99.8330701,9.22973471 100.1462,9.3478002 100.515802,9.3478002 C100.895671,9.3478002 101.213934,9.23230136 101.470602,9.0013002 C101.72727,8.77029904 101.855602,8.39813608 101.855602,7.88480017 L101.855602,3.03380007 L103.857602,3.03380007 L103.857602,11.0572002 L101.901802,11.0572002 Z M110.772202,11.0572002 L110.772202,6.20620013 C110.772202,5.70313094 110.64387,5.33353463 110.387202,5.09740011 C110.130534,4.86126559 109.817404,4.7432001 109.447802,4.7432001 C109.067934,4.7432001 108.74967,4.85869895 108.493002,5.08970011 C108.236334,5.32070127 108.108002,5.69286422 108.108002,6.20620013 L108.108002,11.0572002 L106.106002,11.0572002 L106.106002,3.03380007 L108.061802,3.03380007 L108.061802,3.77300008 C108.585405,3.2185973 109.252732,2.94140006 110.063802,2.94140006 C110.453938,2.94140006 110.810701,3.00299945 111.134102,3.12620007 C111.457504,3.24940069 111.750101,3.44189877 112.011902,3.70370008 C112.273704,3.96550139 112.466202,4.28376489 112.589402,4.6585001 C112.712603,5.03323532 112.774202,5.45673109 112.774202,5.92900013 L112.774202,11.0572002 L110.772202,11.0572002 Z M117.440403,11.0572002 C116.670399,11.0572002 116.090338,10.8339025 115.700203,10.3873002 C115.310067,9.94069798 115.115002,9.39913672 115.115002,8.76260019 L115.115002,4.7894001 L114.268002,4.7894001 L114.268002,3.26480007 L115.115002,3.26480007 L115.115002,0.893200019 L117.117003,0.893200019 L117.117003,3.26480007 L118.533803,3.26480007 L118.533803,4.7894001 L117.117003,4.7894001 L117.117003,8.63940019 C117.117003,9.12193594 117.348,9.3632002 117.810003,9.3632002 L118.533803,9.3632002 L118.533803,11.0572002 L117.440403,11.0572002 Z M123.338603,12.3508003 C123.246202,12.5972015 123.15637,12.7973995 123.069103,12.9514003 C122.981836,13.1054011 122.850937,13.2696661 122.676403,13.4442003 C122.501868,13.6187345 122.268304,13.7547665 121.975703,13.8523003 C121.683101,13.9498341 121.362271,13.9986003 121.013203,13.9986003 L120.227803,13.9986003 L120.227803,12.1968003 L120.689803,12.1968003 C120.977271,12.1968003 121.190302,12.1480341 121.328903,12.0505003 C121.467503,11.9529664 121.588135,11.7604684 121.690803,11.4730002 L122.029603,10.4874002 L119.288403,3.03380007 L121.398203,3.03380007 L123.061403,7.99260017 L124.663003,3.03380007 L126.772803,3.03380007 L123.338603,12.3508003 Z M131.023203,11.0572002 L131.023203,9.3324002 L135.704803,2.00200004 L131.223403,2.00200004 L131.223403,0.092400002 L138.230403,0.092400002 L138.230403,1.78640004 L133.533403,9.1476002 L138.230403,9.1476002 L138.230403,11.0572002 L131.023203,11.0572002 Z M145.514603,10.1640002 C145.237402,10.461735 144.893472,10.7004327 144.482803,10.8801002 C144.072134,11.0597678 143.584473,11.1496002 143.019803,11.1496002 C142.4654,11.1496002 141.982872,11.0597678 141.572203,10.8801002 C141.161534,10.7004327 140.799638,10.4463352 140.486503,10.1178002 C140.173368,9.78926524 139.952637,9.38630259 139.824303,8.90890019 C139.695969,8.4314978 139.631803,7.80780402 139.631803,7.03780015 C139.631803,6.24726285 139.693402,5.62613571 139.816603,5.17440011 C139.939804,4.72266451 140.160535,4.32740179 140.478803,3.98860009 C140.797071,3.64979839 141.158968,3.39056764 141.564503,3.21090007 C141.970038,3.0312325 142.455134,2.94140006 143.019803,2.94140006 C143.574206,2.94140006 144.059301,3.0312325 144.475103,3.21090007 C144.890905,3.39056764 145.255368,3.6446651 145.568503,3.97320009 C145.881638,4.30173507 146.102369,4.70469771 146.230703,5.18210011 C146.359037,5.65950251 146.423203,6.278063 146.423203,7.03780015 C146.423203,7.83860417 146.361604,8.46486459 146.238403,8.91660019 C146.115203,9.3683358 145.873938,9.78413165 145.514603,10.1640002 Z M143.959203,5.09740011 C143.723069,4.86126559 143.409938,4.7432001 143.019803,4.7432001 C142.639935,4.7432001 142.344771,4.84843239 142.134303,5.05890011 C141.923835,5.26936783 141.787803,5.53116522 141.726203,5.84430013 C141.664603,6.15743503 141.633803,6.5552644 141.633803,7.03780015 C141.633803,7.6846034 141.669736,8.13119894 141.741603,8.37760018 C141.81347,8.62400142 141.949502,8.84729919 142.149703,9.0475002 C142.349904,9.2477012 142.639935,9.3478002 143.019803,9.3478002 C143.409938,9.3478002 143.710235,9.24256792 143.920703,9.0321002 C144.131171,8.82163247 144.267203,8.55983508 144.328803,8.24670018 C144.390403,7.93356527 144.421203,7.53060263 144.421203,7.03780015 C144.421203,6.51419752 144.395537,6.11123488 144.344203,5.82890013 C144.29287,5.54656538 144.164537,5.30273447 143.959203,5.09740011 Z M153.876803,10.1640002 C153.599602,10.461735 153.255672,10.7004327 152.845003,10.8801002 C152.434335,11.0597678 151.946673,11.1496002 151.382003,11.1496002 C150.8276,11.1496002 150.345072,11.0597678 149.934403,10.8801002 C149.523735,10.7004327 149.161838,10.4463352 148.848703,10.1178002 C148.535568,9.78926524 148.314837,9.38630259 148.186503,8.90890019 C148.058169,8.4314978 147.994003,7.80780402 147.994003,7.03780015 C147.994003,6.24726285 148.055603,5.62613571 148.178803,5.17440011 C148.302004,4.72266451 148.522735,4.32740179 148.841003,3.98860009 C149.159271,3.64979839 149.521168,3.39056764 149.926703,3.21090007 C150.332239,3.0312325 150.817334,2.94140006 151.382003,2.94140006 C151.936406,2.94140006 152.421501,3.0312325 152.837303,3.21090007 C153.253105,3.39056764 153.617568,3.6446651 153.930703,3.97320009 C154.243838,4.30173507 154.464569,4.70469771 154.592903,5.18210011 C154.721237,5.65950251 154.785403,6.278063 154.785403,7.03780015 C154.785403,7.83860417 154.723804,8.46486459 154.600603,8.91660019 C154.477403,9.3683358 154.236138,9.78413165 153.876803,10.1640002 Z M152.321403,5.09740011 C152.085269,4.86126559 151.772139,4.7432001 151.382003,4.7432001 C151.002135,4.7432001 150.706971,4.84843239 150.496503,5.05890011 C150.286036,5.26936783 150.150004,5.53116522 150.088403,5.84430013 C150.026803,6.15743503 149.996003,6.5552644 149.996003,7.03780015 C149.996003,7.6846034 150.031936,8.13119894 150.103803,8.37760018 C150.17567,8.62400142 150.311702,8.84729919 150.511903,9.0475002 C150.712104,9.2477012 151.002135,9.3478002 151.382003,9.3478002 C151.772139,9.3478002 152.072436,9.24256792 152.282903,9.0321002 C152.493371,8.82163247 152.629403,8.55983508 152.691003,8.24670018 C152.752604,7.93356527 152.783403,7.53060263 152.783403,7.03780015 C152.783403,6.51419752 152.757737,6.11123488 152.706403,5.82890013 C152.65507,5.54656538 152.526738,5.30273447 152.321403,5.09740011 Z"/>
      <path fill="#C88137" d="M182.058804,11.0572002 L182.058804,9.3324002 L186.740404,2.00200004 L182.259004,2.00200004 L182.259004,0.092400002 L189.266004,0.092400002 L189.266004,1.78640004 L184.569004,9.1476002 L189.266004,9.1476002 L189.266004,11.0572002 L182.058804,11.0572002 Z M196.550204,10.1640002 C196.273003,10.461735 195.929073,10.7004327 195.518404,10.8801002 C195.107736,11.0597678 194.620074,11.1496002 194.055404,11.1496002 C193.501001,11.1496002 193.018473,11.0597678 192.607804,10.8801002 C192.197135,10.7004327 191.835239,10.4463352 191.522104,10.1178002 C191.208969,9.78926524 190.988238,9.38630259 190.859904,8.90890019 C190.73157,8.4314978 190.667404,7.80780402 190.667404,7.03780015 C190.667404,6.24726285 190.729004,5.62613571 190.852204,5.17440011 C190.975405,4.72266451 191.196136,4.32740179 191.514404,3.98860009 C191.832672,3.64979839 192.194569,3.39056764 192.600104,3.21090007 C193.00564,3.0312325 193.490735,2.94140006 194.055404,2.94140006 C194.609807,2.94140006 195.094902,3.0312325 195.510704,3.21090007 C195.926506,3.39056764 196.290969,3.6446651 196.604104,3.97320009 C196.917239,4.30173507 197.13797,4.70469771 197.266304,5.18210011 C197.394638,5.65950251 197.458804,6.278063 197.458804,7.03780015 C197.458804,7.83860417 197.397205,8.46486459 197.274004,8.91660019 C197.150804,9.3683358 196.909539,9.78413165 196.550204,10.1640002 Z M194.994804,5.09740011 C194.75867,4.86126559 194.445539,4.7432001 194.055404,4.7432001 C193.675536,4.7432001 193.380372,4.84843239 193.169904,5.05890011 C192.959436,5.26936783 192.823404,5.53116522 192.761804,5.84430013 C192.700204,6.15743503 192.669404,6.5552644 192.669404,7.03780015 C192.669404,7.6846034 192.705337,8.13119894 192.777204,8.37760018 C192.849071,8.62400142 192.985103,8.84729919 193.185304,9.0475002 C193.385505,9.2477012 193.675536,9.3478002 194.055404,9.3478002 C194.445539,9.3478002 194.745837,9.24256792 194.956304,9.0321002 C195.166772,8.82163247 195.302804,8.55983508 195.364404,8.24670018 C195.426005,7.93356527 195.456804,7.53060263 195.456804,7.03780015 C195.456804,6.51419752 195.431138,6.11123488 195.379804,5.82890013 C195.328471,5.54656538 195.200139,5.30273447 194.994804,5.09740011 Z M204.912404,10.1640002 C204.635203,10.461735 204.291273,10.7004327 203.880604,10.8801002 C203.469936,11.0597678 202.982274,11.1496002 202.417604,11.1496002 C201.863202,11.1496002 201.380673,11.0597678 200.970004,10.8801002 C200.559336,10.7004327 200.197439,10.4463352 199.884304,10.1178002 C199.571169,9.78926524 199.350438,9.38630259 199.222104,8.90890019 C199.09377,8.4314978 199.029604,7.80780402 199.029604,7.03780015 C199.029604,6.24726285 199.091204,5.62613571 199.214404,5.17440011 C199.337605,4.72266451 199.558336,4.32740179 199.876604,3.98860009 C200.194873,3.64979839 200.556769,3.39056764 200.962304,3.21090007 C201.36784,3.0312325 201.852935,2.94140006 202.417604,2.94140006 C202.972007,2.94140006 203.457102,3.0312325 203.872904,3.21090007 C204.288707,3.39056764 204.65317,3.6446651 204.966304,3.97320009 C205.279439,4.30173507 205.50017,4.70469771 205.628504,5.18210011 C205.756838,5.65950251 205.821004,6.278063 205.821004,7.03780015 C205.821004,7.83860417 205.759405,8.46486459 205.636204,8.91660019 C205.513004,9.3683358 205.27174,9.78413165 204.912404,10.1640002 Z M203.357004,5.09740011 C203.12087,4.86126559 202.80774,4.7432001 202.417604,4.7432001 C202.037736,4.7432001 201.742572,4.84843239 201.532104,5.05890011 C201.321637,5.26936783 201.185605,5.53116522 201.124004,5.84430013 C201.062404,6.15743503 201.031604,6.5552644 201.031604,7.03780015 C201.031604,7.6846034 201.067537,8.13119894 201.139404,8.37760018 C201.211271,8.62400142 201.347303,8.84729919 201.547504,9.0475002 C201.747705,9.2477012 202.037736,9.3478002 202.417604,9.3478002 C202.80774,9.3478002 203.108037,9.24256792 203.318504,9.0321002 C203.528972,8.82163247 203.665004,8.55983508 203.726604,8.24670018 C203.788205,7.93356527 203.819004,7.53060263 203.819004,7.03780015 C203.819004,6.51419752 203.793338,6.11123488 203.742004,5.82890013 C203.690671,5.54656538 203.562339,5.30273447 203.357004,5.09740011 Z M209.994405,11.0572002 C209.224401,11.0572002 208.641773,10.8339025 208.246505,10.3873002 C207.851236,9.94069798 207.653605,9.39913672 207.653605,8.76260019 L207.653605,0.092400002 L209.655605,0.092400002 L209.655605,8.63940019 C209.655605,9.12193594 209.891736,9.3632002 210.364005,9.3632002 L211.134005,9.3632002 L211.134005,11.0572002 L209.994405,11.0572002 Z M218.279605,10.1640002 C218.002403,10.461735 217.658473,10.7004327 217.247805,10.8801002 C216.837136,11.0597678 216.349474,11.1496002 215.784805,11.1496002 C215.230402,11.1496002 214.747873,11.0597678 214.337205,10.8801002 C213.926536,10.7004327 213.56464,10.4463352 213.251505,10.1178002 C212.93837,9.78926524 212.717639,9.38630259 212.589305,8.90890019 C212.460971,8.4314978 212.396805,7.80780402 212.396805,7.03780015 C212.396805,6.24726285 212.458404,5.62613571 212.581605,5.17440011 C212.704805,4.72266451 212.925536,4.32740179 213.243805,3.98860009 C213.562073,3.64979839 213.923969,3.39056764 214.329505,3.21090007 C214.73504,3.0312325 215.220135,2.94140006 215.784805,2.94140006 C216.339207,2.94140006 216.824303,3.0312325 217.240105,3.21090007 C217.655907,3.39056764 218.02037,3.6446651 218.333505,3.97320009 C218.64664,4.30173507 218.867371,4.70469771 218.995705,5.18210011 C219.124039,5.65950251 219.188205,6.278063 219.188205,7.03780015 C219.188205,7.83860417 219.126605,8.46486459 219.003405,8.91660019 C218.880204,9.3683358 218.63894,9.78413165 218.279605,10.1640002 Z M216.724205,5.09740011 C216.48807,4.86126559 216.17494,4.7432001 215.784805,4.7432001 C215.404936,4.7432001 215.109772,4.84843239 214.899305,5.05890011 C214.688837,5.26936783 214.552805,5.53116522 214.491205,5.84430013 C214.429604,6.15743503 214.398805,6.5552644 214.398805,7.03780015 C214.398805,7.6846034 214.434738,8.13119894 214.506605,8.37760018 C214.578472,8.62400142 214.714504,8.84729919 214.914705,9.0475002 C215.114906,9.2477012 215.404936,9.3478002 215.784805,9.3478002 C216.17494,9.3478002 216.475237,9.24256792 216.685705,9.0321002 C216.896172,8.82163247 217.032204,8.55983508 217.093805,8.24670018 C217.155405,7.93356527 217.186205,7.53060263 217.186205,7.03780015 C217.186205,6.51419752 217.160538,6.11123488 217.109205,5.82890013 C217.057871,5.54656538 216.929539,5.30273447 216.724205,5.09740011 Z M223.869805,14.0910003 C223.223002,14.0910003 222.678874,14.0165677 222.237405,13.8677003 C221.795936,13.7188329 221.369874,13.4442023 220.959205,13.0438003 L222.206605,11.7810003 C222.62754,12.191669 223.151135,12.3970003 223.777405,12.3970003 C224.331808,12.3970003 224.739904,12.2378685 225.001705,11.9196003 C225.263506,11.601332 225.394405,11.2060693 225.394405,10.7338002 L225.394405,9.91760021 C225.137737,10.2050683 224.857973,10.4103996 224.555105,10.5336002 C224.252237,10.6568008 223.895474,10.7184002 223.484805,10.7184002 C222.684001,10.7184002 222.078274,10.5130689 221.667605,10.1024002 C221.256936,9.69173149 221.002839,9.25283587 220.905305,8.78570019 C220.807771,8.31856451 220.759005,7.66407104 220.759005,6.82220015 C220.759005,6.00086269 220.807771,5.35406914 220.905305,4.88180011 C221.002839,4.40953107 221.256936,3.96806881 221.667605,3.55740008 C222.078274,3.14673135 222.689134,2.94140006 223.500205,2.94140006 C223.931407,2.94140006 224.29587,3.00556609 224.593605,3.13390007 C224.89134,3.26223405 225.178803,3.48039854 225.456005,3.78840008 L225.456005,3.03380007 L227.396405,3.03380007 L227.396405,10.7646002 C227.396405,11.7399385 227.075575,12.5381638 226.433905,13.1593003 C225.792235,13.7804367 224.937544,14.0910003 223.869805,14.0910003 Z M224.070005,4.7432001 C223.536136,4.7432001 223.184506,4.92543162 223.015105,5.28990011 C222.845704,5.65436861 222.761005,6.16513018 222.761005,6.82220015 C222.761005,7.67433776 222.87137,8.23643215 223.092105,8.50850018 C223.312839,8.78056822 223.638803,8.91660019 224.070005,8.91660019 C224.603874,8.91660019 224.958071,8.73180204 225.132605,8.36220018 C225.307139,7.99259833 225.394405,7.47927011 225.394405,6.82220015 C225.394405,6.1753969 225.307139,5.66720197 225.132605,5.29760011 C224.958071,4.92799826 224.603874,4.7432001 224.070005,4.7432001 Z M229.614005,1.66320004 L229.614005,0.0308000007 L231.662205,0.0308000007 L231.662205,1.66320004 L229.614005,1.66320004 Z M229.644805,11.0572002 L229.644805,3.03380007 L231.646805,3.03380007 L231.646805,11.0572002 L229.644805,11.0572002 Z M237.067605,11.1496002 C236.102534,11.1496002 235.263242,10.8339034 234.549705,10.2025002 C233.836168,9.57109705 233.479405,8.51620758 233.479405,7.03780015 C233.479405,5.55939273 233.833602,4.5070699 234.542005,3.88080008 C235.250409,3.25453027 236.092267,2.94140006 237.067605,2.94140006 C238.145611,2.94140006 239.028535,3.30072981 239.716405,4.01940009 L238.361205,5.37460012 C238.155871,5.14873232 237.953106,4.98703393 237.752905,4.88950011 C237.552704,4.79196628 237.324273,4.7432001 237.067605,4.7432001 C236.595336,4.7432001 236.212907,4.92286498 235.920305,5.28220011 C235.627704,5.64153525 235.481405,6.22672941 235.481405,7.03780015 C235.481405,7.85913761 235.627704,8.44946505 235.920305,8.80880019 C236.212907,9.16813533 236.595336,9.3478002 237.067605,9.3478002 C237.539874,9.3478002 237.97107,9.13733564 238.361205,8.71640019 L239.716405,10.0562002 C239.018268,10.7851372 238.135344,11.1496002 237.067605,11.1496002 Z M245.383605,11.0572002 L245.383605,10.3642002 C245.106404,10.6414016 244.824073,10.839033 244.536605,10.9571002 C244.249137,11.0751675 243.874408,11.1342002 243.412405,11.1342002 C242.519201,11.1342002 241.844174,10.9006359 241.387305,10.4335002 C240.930436,9.96636455 240.702005,9.3632039 240.702005,8.62400019 C240.702005,7.93613007 240.933003,7.37660232 241.395005,6.94540015 C241.857008,6.51419799 242.539734,6.29860014 243.443205,6.29860014 L245.337405,6.29860014 L245.337405,5.89820013 C245.337405,5.45673124 245.221906,5.13590111 244.990905,4.93570011 C244.759904,4.7354991 244.377475,4.6354001 243.843605,4.6354001 C243.45347,4.6354001 243.15574,4.68159964 242.950405,4.7740001 C242.745071,4.86640057 242.529473,5.04093216 242.303605,5.29760011 L241.025405,4.05020009 C241.415541,3.62926464 241.82107,3.3392342 242.242005,3.18010007 C242.662941,3.02096594 243.222468,2.94140006 243.920605,2.94140006 C246.199817,2.94140006 247.339405,3.88592397 247.339405,5.77500013 L247.339405,11.0572002 L245.383605,11.0572002 Z M245.337405,7.66920017 L243.751205,7.66920017 C243.001735,7.66920017 242.627005,7.97206381 242.627005,8.57780019 C242.627005,9.19380328 243.012001,9.50180021 243.782005,9.50180021 C244.100274,9.50180021 244.346671,9.47870044 244.521205,9.4325002 C244.69574,9.38629997 244.875404,9.27593441 245.060205,9.1014002 C245.245006,8.92686599 245.337405,8.59320265 245.337405,8.10040018 L245.337405,7.66920017 Z M251.759205,11.0572002 C250.989202,11.0572002 250.406574,10.8339025 250.011305,10.3873002 C249.616037,9.94069798 249.418405,9.39913672 249.418405,8.76260019 L249.418405,0.092400002 L251.420405,0.092400002 L251.420405,8.63940019 C251.420405,9.12193594 251.656536,9.3632002 252.128805,9.3632002 L252.898805,9.3632002 L252.898805,11.0572002 L251.759205,11.0572002 Z M261.245606,11.1496002 C260.372935,11.1496002 259.618342,11.0418013 258.981806,10.8262002 C258.345269,10.6105992 257.765208,10.2358696 257.241606,9.70200021 L258.627606,8.31600018 C258.956141,8.64453516 259.343703,8.88066614 259.790306,9.0244002 C260.236908,9.16813425 260.73227,9.2400002 261.276406,9.2400002 C262.570012,9.2400002 263.216806,8.78827137 263.216806,7.88480017 C263.216806,7.48439816 263.134673,7.20720093 262.970406,7.05320015 C262.806138,6.89919938 262.647006,6.78883381 262.493006,6.72210015 C262.339005,6.65536648 262.14394,6.6066003 261.907806,6.57580014 L260.583406,6.39100014 C259.649134,6.2575328 258.930475,5.94183595 258.427406,5.44390012 C257.924336,4.94596428 257.672806,4.24013799 257.672806,3.32640007 C257.672806,2.3305284 258.014169,1.52716975 258.696906,0.91630002 C259.379642,0.305430286 260.311333,2.13162821e-14 261.492006,2.13162821e-14 C262.26201,2.13162821e-14 262.92677,0.0975323601 263.486306,0.292600006 C264.045842,0.487667653 264.561737,0.816197708 265.034006,1.27820003 L263.678806,2.61800006 C263.370804,2.33053195 263.024308,2.13290059 262.639306,2.02510004 C262.254304,1.9172995 261.851341,1.86340004 261.430406,1.86340004 C260.876003,1.86340004 260.455074,1.99173209 260.167606,2.24840005 C259.880138,2.505068 259.736406,2.83873134 259.736406,3.24940007 C259.736406,3.41366756 259.759505,3.55739946 259.805706,3.68060008 C259.851906,3.8038007 259.967405,3.95009924 260.152206,4.11950009 C260.337007,4.28890094 260.645003,4.40439979 261.076206,4.4660001 L262.369806,4.6508001 C263.29381,4.78426744 263.948304,5.02809834 264.333306,5.38230012 C264.718308,5.7365019 264.977538,6.10609821 265.111006,6.49110014 C265.244473,6.87610207 265.311206,7.32013098 265.311206,7.82320017 C265.311206,8.86013871 264.931343,9.67376392 264.171606,10.2641002 C263.411869,10.8544365 262.436545,11.1496002 261.245606,11.1496002 Z M272.718606,10.1640002 C272.441405,10.461735 272.097475,10.7004327 271.686806,10.8801002 C271.276137,11.0597678 270.788475,11.1496002 270.223806,11.1496002 C269.669403,11.1496002 269.186875,11.0597678 268.776206,10.8801002 C268.365537,10.7004327 268.003641,10.4463352 267.690506,10.1178002 C267.377371,9.78926524 267.15664,9.38630259 267.028306,8.90890019 C266.899972,8.4314978 266.835806,7.80780402 266.835806,7.03780015 C266.835806,6.24726285 266.897405,5.62613571 267.020606,5.17440011 C267.143806,4.72266451 267.364538,4.32740179 267.682806,3.98860009 C268.001074,3.64979839 268.36297,3.39056764 268.768506,3.21090007 C269.174041,3.0312325 269.659136,2.94140006 270.223806,2.94140006 C270.778209,2.94140006 271.263304,3.0312325 271.679106,3.21090007 C272.094908,3.39056764 272.459371,3.6446651 272.772506,3.97320009 C273.085641,4.30173507 273.306372,4.70469771 273.434706,5.18210011 C273.56304,5.65950251 273.627206,6.278063 273.627206,7.03780015 C273.627206,7.83860417 273.565607,8.46486459 273.442406,8.91660019 C273.319205,9.3683358 273.077941,9.78413165 272.718606,10.1640002 Z M271.163206,5.09740011 C270.927071,4.86126559 270.613941,4.7432001 270.223806,4.7432001 C269.843937,4.7432001 269.548774,4.84843239 269.338306,5.05890011 C269.127838,5.26936783 268.991806,5.53116522 268.930206,5.84430013 C268.868606,6.15743503 268.837806,6.5552644 268.837806,7.03780015 C268.837806,7.6846034 268.873739,8.13119894 268.945606,8.37760018 C269.017473,8.62400142 269.153505,8.84729919 269.353706,9.0475002 C269.553907,9.2477012 269.843937,9.3478002 270.223806,9.3478002 C270.613941,9.3478002 270.914238,9.24256792 271.124706,9.0321002 C271.335174,8.82163247 271.471206,8.55983508 271.532806,8.24670018 C271.594406,7.93356527 271.625206,7.53060263 271.625206,7.03780015 C271.625206,6.51419752 271.599539,6.11123488 271.548206,5.82890013 C271.496872,5.54656538 271.36854,5.30273447 271.163206,5.09740011 Z M278.724606,11.1496002 C277.759535,11.1496002 276.920243,10.8339034 276.206706,10.2025002 C275.493169,9.57109705 275.136406,8.51620758 275.136406,7.03780015 C275.136406,5.55939273 275.490602,4.5070699 276.199006,3.88080008 C276.90741,3.25453027 277.749268,2.94140006 278.724606,2.94140006 C279.802611,2.94140006 280.685536,3.30072981 281.373406,4.01940009 L280.018206,5.37460012 C279.812872,5.14873232 279.610107,4.98703393 279.409906,4.88950011 C279.209705,4.79196628 278.981274,4.7432001 278.724606,4.7432001 C278.252337,4.7432001 277.869907,4.92286498 277.577306,5.28220011 C277.284705,5.64153525 277.138406,6.22672941 277.138406,7.03780015 C277.138406,7.85913761 277.284705,8.44946505 277.577306,8.80880019 C277.869907,9.16813533 278.252337,9.3478002 278.724606,9.3478002 C279.196875,9.3478002 279.628071,9.13733564 280.018206,8.71640019 L281.373406,10.0562002 C280.675269,10.7851372 279.792345,11.1496002 278.724606,11.1496002 Z M282.898006,1.66320004 L282.898006,0.0308000007 L284.946206,0.0308000007 L284.946206,1.66320004 L282.898006,1.66320004 Z M282.928806,11.0572002 L282.928806,3.03380007 L284.930806,3.03380007 L284.930806,11.0572002 L282.928806,11.0572002 Z M288.734606,7.66920017 C288.734606,8.20306951 288.888605,8.63426521 289.196606,8.96280019 C289.504608,9.29133518 289.935804,9.4556002 290.490206,9.4556002 C290.900875,9.4556002 291.237105,9.3991341 291.498906,9.2862002 C291.760708,9.1732663 292.030205,8.97820158 292.307406,8.70100019 L293.524006,9.88680021 C293.082537,10.3282691 292.638509,10.6490992 292.191906,10.8493002 C291.745304,11.0495012 291.172943,11.1496002 290.474806,11.1496002 C289.376267,11.1496002 288.483076,10.8416033 287.795206,10.2256002 C287.107336,9.60959713 286.763406,8.54700773 286.763406,7.03780015 C286.763406,5.75446037 287.08167,4.75090372 287.718206,4.02710009 C288.354743,3.30329645 289.201734,2.94140006 290.259206,2.94140006 C291.347478,2.94140006 292.20217,3.29816317 292.823306,4.01170009 C293.444443,4.725237 293.755006,5.64666114 293.755006,6.77600015 L293.755006,7.66920017 L288.734606,7.66920017 Z M291.599006,5.43620012 C291.486072,5.17953216 291.316674,4.97676752 291.090806,4.8279001 C290.864939,4.67903269 290.587741,4.6046001 290.259206,4.6046001 C289.930671,4.6046001 289.653474,4.67903269 289.427606,4.8279001 C289.201738,4.97676752 289.029774,5.18979873 288.911706,5.46700012 C288.793639,5.74420151 288.734606,6.02139874 288.734606,6.29860014 L291.783806,6.29860014 C291.783806,6.02139874 291.722207,5.73393495 291.599006,5.43620012 Z M298.113206,11.0572002 C297.343203,11.0572002 296.763142,10.8339025 296.373006,10.3873002 C295.982871,9.94069798 295.787806,9.39913672 295.787806,8.76260019 L295.787806,4.7894001 L294.940806,4.7894001 L294.940806,3.26480007 L295.787806,3.26480007 L295.787806,0.893200019 L297.789806,0.893200019 L297.789806,3.26480007 L299.206606,3.26480007 L299.206606,4.7894001 L297.789806,4.7894001 L297.789806,8.63940019 C297.789806,9.12193594 298.020804,9.3632002 298.482806,9.3632002 L299.206606,9.3632002 L299.206606,11.0572002 L298.113206,11.0572002 Z M304.011407,12.3508003 C303.919006,12.5972015 303.829174,12.7973995 303.741907,12.9514003 C303.654639,13.1054011 303.523741,13.2696661 303.349207,13.4442003 C303.174672,13.6187345 302.941108,13.7547665 302.648507,13.8523003 C302.355905,13.9498341 302.035075,13.9986003 301.686007,13.9986003 L300.900607,13.9986003 L300.900607,12.1968003 L301.362607,12.1968003 C301.650075,12.1968003 301.863106,12.1480341 302.001707,12.0505003 C302.140307,11.9529664 302.260939,11.7604684 302.363607,11.4730002 L302.702407,10.4874002 L299.961207,3.03380007 L302.071007,3.03380007 L303.734207,7.99260017 L305.335807,3.03380007 L307.445607,3.03380007 L304.011407,12.3508003 Z"/>
    </g>
    <path fill="#FFF" d="M172.938979,51.5479397 C174.153269,52.5843549 174.217093,54.4444714 173.128467,55.5678792 L169.386972,59.4311866 C169.145273,59.6806272 168.752758,59.6806272 168.51106,59.4311866 L164.769565,55.5678792 C163.682884,54.4444714 163.746707,52.5843549 164.960998,51.5479397 C166.020601,50.6449687 167.598402,50.8073789 168.569067,51.8109192 L168.949988,52.203434 L169.330909,51.8109192 C170.303501,50.8073789 171.879376,50.6449687 172.938979,51.5479397 Z"/>
  </g>
</svg>
